<?xml version="1.0" encoding="UTF-8" standalone="no"?>
<!-- Uploaded to: SVG Repo, www.svgrepo.com, Generator: SVG Repo Mixer Tools -->

<svg
   fill="#000000"
   width="800px"
   height="800px"
   viewBox="0 0 24 24"
   role="img"
   version="1.1"
   id="svg1"
   sodipodi:docname="retroarch _inv.svg"
   inkscape:version="1.4 (e7c3feb100, 2024-10-09)"
   xmlns:inkscape="http://www.inkscape.org/namespaces/inkscape"
   xmlns:sodipodi="http://sodipodi.sourceforge.net/DTD/sodipodi-0.dtd"
   xmlns="http://www.w3.org/2000/svg"
   xmlns:svg="http://www.w3.org/2000/svg">
  <defs
     id="defs1" />
  <sodipodi:namedview
     id="namedview1"
     pagecolor="#ffffff"
     bordercolor="#000000"
     borderopacity="0.25"
     inkscape:showpageshadow="2"
     inkscape:pageopacity="0.0"
     inkscape:pagecheckerboard="0"
     inkscape:deskcolor="#d1d1d1"
     inkscape:zoom="1.06"
     inkscape:cx="399.5283"
     inkscape:cy="400"
     inkscape:window-width="1920"
     inkscape:window-height="1056"
     inkscape:window-x="0"
     inkscape:window-y="0"
     inkscape:window-maximized="1"
     inkscape:current-layer="svg1" />
  <title
     id="title1">RetroArch icon</title>
  <path
     d="M6.84 5.76L8.4 7.68H5.28l-.72 2.88H2.64l.72-2.88H1.44L0 13.44h3.84l-.48 1.92h3.36L4.2 18.24h2.82l2.34-2.88h5.28l2.34 2.88h2.82l-2.52-2.88h3.36l-.48-1.92H24l-1.44-5.76h-1.92l.72 2.88h-1.92l-.72-2.88H15.6l1.56-1.92h-2.04l-1.68 1.92h-2.88L8.88 5.76zm.24 3.84H9v1.92H7.08zm7.925 0h1.92v1.92h-1.92Z"
     id="path1" />
  <path
     style="fill:#ffffff;stroke:#000000;stroke-width:0.943396"
     d="m 143.08149,605.42453 c 6.95456,-7.52787 80.97511,-92.61628 80.97511,-93.08284 0,-0.30209 -25.04717,-0.54924 -55.66037,-0.54924 -30.61321,0 -55.64872,-0.31839 -55.63447,-0.70754 0.0143,-0.38916 3.57213,-14.82312 7.90637,-32.07548 l 7.88045,-31.36792 H 64.626207 0.70383226 L 23.745041,355.42453 C 36.417706,304.70519 47.207309,261.61557 47.72194,259.66981 l 0.93569,-3.53773 h 31.095713 c 20.423507,0 31.095717,0.32888 31.095717,0.95827 0,0.86116 -22.012132,89.63054 -23.214241,93.6172 -0.467394,1.55005 1.492254,1.65094 32.068591,1.65094 h 32.56639 l 0.83169,-3.06604 c 0.45743,-1.68632 5.88472,-23.33374 12.06064,-48.10538 l 11.22895,-45.03936 52.06619,-0.24367 52.0662,-0.24366 -18.39706,-22.64151 c -10.11839,-12.45283 -21.78038,-26.78066 -25.91553,-31.83962 l -7.51846,-9.19812 33.29531,0.0172 33.29529,0.0172 27.83019,31.99778 27.83019,31.99777 H 400 449.0566 l 27.83019,-31.99777 27.83019,-31.99778 33.28982,-0.0172 33.28982,-0.0172 -11.3074,13.9151 c -6.21908,7.6533 -17.86338,21.98113 -25.87623,31.83962 l -14.56883,17.92453 52.03238,0.24366 52.03238,0.24367 11.22895,45.03936 c 6.17592,24.77164 11.60321,46.41906 12.06064,48.10538 l 0.83169,3.06604 h 32.56639 c 30.57633,0 32.53599,-0.10089 32.06859,-1.65094 -1.2021,-3.98666 -23.21424,-92.75604 -23.21424,-93.6172 0,-0.62939 10.67221,-0.95827 31.09572,-0.95827 h 31.09571 l 0.93569,3.53773 c 0.51463,1.94576 11.30423,45.03538 23.9769,95.75472 l 23.04121,92.21698 h -63.92238 -63.92237 l 7.88045,31.36792 c 4.33424,17.25236 7.89211,31.68632 7.90637,32.07548 0.0142,0.38915 -25.02126,0.70754 -55.63447,0.70754 -30.6132,0 -55.66037,0.24715 -55.66037,0.54924 0,0.46656 74.02055,85.55497 80.97511,93.08284 l 2.39675,2.59434 H 613.0493 566.78333 L 527.73129,559.91309 488.67925,511.80732 400,511.81908 l -88.67925,0.0118 -39.03015,48.09401 -39.03015,48.09402 H 186.97259 140.68474 Z M 300.4717,351.88679 v -32.54717 h -32.54717 -32.54717 v 32.54717 32.54717 h 32.54717 32.54717 z m 264.15094,0 V 319.33962 H 532.07547 499.5283 v 32.54717 32.54717 h 32.54717 32.54717 z"
     id="path2"
     transform="scale(0.03)" />
</svg>
